<svg width="300" height="120" viewBox="0 0 300 120" fill="none" xmlns="http://www.w3.org/2000/svg">
<rect width="300" height="120" fill="white"/>
<path d="M36.5881 44.8586H57.3503V90.7698C57.3503 93.2775 55.3174 95.3103 52.8098 95.3103H41.1286C38.621 95.3103 36.5881 93.2775 36.5881 90.7698V44.8586Z" fill="#EBE5E2" stroke="#333333" stroke-width="2.6"/>
<path d="M27.3565 30.3969L38.8523 19.8887C39.9096 18.9222 41.5502 18.9959 42.5166 20.0532L50.7294 29.0377C51.3082 29.671 51.4395 30.4166 51.1868 30.9975C50.4758 32.6323 48.9723 35.3026 45.9606 38.1041C43.4698 40.4211 40.8313 41.9365 38.8111 42.8722C37.8029 43.3391 36.9545 43.659 36.3641 43.8606C36.307 43.8801 36.2522 43.8985 36.2001 43.9159L27.1921 34.0613C26.2256 33.004 26.2992 31.3634 27.3565 30.3969Z" fill="#C7BDAD" stroke="#333333" stroke-width="2.6"/>
<path d="M36.5881 62.1359H57.3503V95.3094H41.1286C38.621 95.3094 36.5881 93.2765 36.5881 90.7688V62.1359Z" fill="#F2CB92" stroke="#333333" stroke-width="2.6"/>
<rect x="36.5881" y="62.1359" width="20.7622" height="7.37762" fill="#DDA189" stroke="#333333" stroke-width="2.6"/>
<path fill-rule="evenodd" clip-rule="evenodd" d="M57.5254 96.799H71.7411C83.7889 96.799 89.864 92.3644 89.9666 83.4952C90.0691 78.9324 88.3516 75.3694 84.8142 72.806C81.9945 70.7553 78.8929 69.7044 75.5092 69.6531C79.0467 69.0379 81.9432 67.6024 84.199 65.3467C86.4548 63.0909 87.5826 60.1174 87.5826 56.4262C87.5826 52.7349 86.1728 49.7102 83.3531 47.3519C80.5847 44.9936 76.7653 43.8145 71.8949 43.8145H57.5254V96.799ZM70.5107 46.1984C76.8165 46.1984 79.9695 49.7614 79.9695 56.8876C79.9695 60.9889 78.6622 64.1162 76.0475 66.2695C73.9968 67.91 71.7411 68.7303 69.2803 68.7303H59.2063V46.1984H70.5107ZM81.5075 83.1876C81.5587 87.4941 80.2002 90.5701 77.4317 92.4157C75.3811 93.7486 72.8946 94.4151 69.9724 94.4151H59.2063V71.0373H69.3572C72.4845 71.0373 75.0991 71.8319 77.201 73.4212C80.0207 75.5744 81.4562 78.8299 81.5075 83.1876Z" fill="#333333"/>
<path d="M35.5695 27.5997C33.3911 29.4994 31.1841 30.8641 29.412 31.5574C28.5204 31.9063 27.8072 32.0582 27.2995 32.0653C26.7844 32.0726 26.6638 31.936 26.6582 31.9295C26.6525 31.9231 26.5336 31.785 26.6109 31.2757C26.687 30.7737 26.9346 30.0877 27.4015 29.2519C28.3295 27.5906 29.9817 25.5898 32.1601 23.6901C34.3385 21.7904 36.5456 20.4258 38.3177 19.7324C39.2092 19.3836 39.9225 19.2317 40.4302 19.2245C40.9453 19.2172 41.0659 19.3539 41.0715 19.3603C41.0771 19.3667 41.1961 19.5048 41.1188 20.0142C41.0426 20.5162 40.7951 21.2021 40.3282 22.0379C39.4002 23.6992 37.7479 25.7001 35.5695 27.5997Z" fill="#D9D9D9" stroke="#333333" stroke-width="2.6"/>
<path d="M58.0815 39.8516C58.0815 39.8516 67.1125 10.9909 81.0369 14.3298C94.9612 17.6686 91.5758 32.7714 70.9854 28.6035C50.3949 24.4357 54.9789 11.5483 54.9789 11.5483" stroke="#333333" stroke-width="2.4" stroke-linecap="round"/>
<path d="M96.743 71.5848C96.3654 70.6198 95.6312 70.1373 94.5403 70.1373H92.5892V68.438H107.128V70.1373H104.17C103.079 70.1373 102.533 70.5359 102.533 71.3331C102.533 71.5428 102.596 71.7736 102.722 72.0254L110.212 91.5359L117.638 72.8435C117.89 72.2142 118.016 71.6477 118.016 71.1442C118.016 70.4729 117.659 70.1373 116.946 70.1373H113.799V68.438H125.254V70.1373H123.617C122.442 70.1373 121.477 71.0394 120.722 72.8435L110.212 97.1373C109.582 99.1512 108.932 100.976 108.261 102.613C106.582 106.599 105.072 109.2 103.729 110.417C102.386 111.676 101.358 112.431 100.645 112.683C99.9319 112.934 99.1347 113.06 98.2535 113.06C97.4144 113.06 96.5752 112.851 95.7361 112.431C94.9389 112.011 94.6661 111.277 94.9179 110.228C95.0857 108.76 96.0927 108.088 97.9389 108.214C98.4004 108.382 99.0088 108.529 99.764 108.655C100.519 108.823 101.086 108.823 101.463 108.655C101.883 108.529 102.512 108.046 103.351 107.207C104.568 105.781 105.386 104.438 105.806 103.179C106.519 101.669 107.065 100.137 107.442 98.5848C107.4 98.2491 107.275 97.7666 107.065 97.1373C106.855 96.4659 106.645 95.7526 106.435 94.9974C106.268 94.2422 103.037 86.438 96.743 71.5848ZM152.224 82.5988H132.21C132.21 86.2911 133.133 89.1652 134.979 91.2212C136.867 93.4449 139.637 94.5568 143.287 94.5568C145.217 94.5568 147.714 93.5918 150.776 91.6617L151.595 92.2911C148.616 95.9415 144.923 97.7666 140.518 97.7666C136.112 97.7666 132.651 96.445 130.133 93.8016C127.783 91.2422 126.609 87.8436 126.609 83.6058C126.609 79.368 127.867 75.7177 130.385 72.6547C132.944 69.5498 136.364 67.9974 140.644 67.9974C144.168 67.9974 147 69.1932 149.14 71.5848C151.28 73.9345 152.35 76.8296 152.35 80.2701C152.35 80.7317 152.308 81.5079 152.224 82.5988ZM146.811 80.3331C146.811 77.3121 146.245 74.8366 145.112 72.9065C144.021 70.9764 142.364 70.0114 140.14 70.0114C137.916 70.0114 136.049 70.9135 134.539 72.7177C133.028 74.5219 132.273 77.0184 132.273 80.2072C140.119 80.417 144.965 80.4589 146.811 80.3331ZM175.501 53.8366C180.662 53.8366 184.564 54.9694 187.207 57.2352C189.851 59.5009 191.172 62.5638 191.172 66.424C191.172 70.2841 189.389 73.3051 185.823 75.4869C182.718 77.417 178.564 78.382 173.361 78.382H168.074V95.2491H173.927V97.2002H156.431V95.2491H162.347V55.7876H156.431V53.8366H175.501ZM181.165 74.354C183.557 72.5498 184.711 69.8435 184.627 66.2352C184.543 62.6268 183.704 59.9834 182.109 58.3051C180.557 56.6268 178.102 55.7876 174.746 55.7876H168.074V76.6827H173.487C176.634 76.6827 179.193 75.9065 181.165 74.354ZM228.523 95.5009V97.2631H218.454L218.391 92.1652C215.789 96.0673 212.076 98.0184 207.251 98.0184C203.433 98.0184 200.915 96.8855 199.698 94.6198C198.985 93.3191 198.628 90.9275 198.628 87.4449V72.2771C198.502 70.8505 197.789 70.1373 196.488 70.1373H193.53V68.438H203.789V86.8156C203.789 89.4589 204.23 91.368 205.111 92.5429C206.034 93.6757 207.796 94.2422 210.398 94.2422C212.244 94.2422 214.006 93.445 215.684 91.8505C217.363 90.1722 218.202 88.5988 218.202 87.1303V72.2771C218.118 70.8505 217.363 70.1373 215.936 70.1373H213.041V68.438H223.3V94.1163C223.3 94.5778 223.467 94.9345 223.803 95.1862C224.181 95.396 224.537 95.5009 224.873 95.5009H228.523ZM236.802 69.5708L236.928 67.368C237.096 63.2142 238.019 60.0883 239.697 57.9904C241.376 55.8925 244.061 54.8016 247.753 54.7177C250.271 54.6338 252.306 55.3051 253.858 56.7317C254.781 54.1722 257.068 52.8925 260.718 52.8925C263.278 52.8925 265.208 53.5009 266.508 54.7177C267.39 55.5988 267.872 56.6687 267.956 57.9275C267.998 60.1512 266.97 61.2631 264.872 61.2631C264.369 61.2631 263.76 61.0743 263.047 60.6967C262.376 60.3191 262.124 59.8366 262.292 59.2491C262.334 59.0813 262.585 58.7666 263.047 58.3051C263.55 57.8435 263.76 57.2981 263.676 56.6687C263.592 55.9974 263.257 55.41 262.669 54.9065C262.124 54.403 261.494 54.1722 260.781 54.2142C260.11 54.2561 259.543 54.5918 259.082 55.2212C258.62 55.8086 258.39 56.4799 258.39 57.2352C258.39 59.6687 258.411 61.7456 258.452 63.4659V69.5708H265.879V71.8995H258.39V94.0533C258.515 95.0184 258.977 95.5009 259.774 95.5009H263.487V97.2002H248.194V95.5009H251.844C252.683 95.5009 253.166 95.0184 253.292 94.0533L253.229 71.8995H242.089L241.963 94.0533C242.173 95.0184 242.655 95.5009 243.411 95.5009H247.061V97.2002H231.767V95.5009H235.292C236.089 95.5009 236.55 95.0184 236.676 94.0533V71.8995H231.767V69.5708H236.802ZM253.229 60.3191C252.977 58.9345 252.18 57.8435 250.837 57.0463C249.788 56.375 248.697 56.0393 247.564 56.0393C246.473 56.0393 245.404 56.6268 244.355 57.8016C242.928 59.396 242.215 61.9764 242.215 65.5428V69.5708H253.166C253.25 66.8016 253.271 63.7177 253.229 60.3191Z" fill="#333333"/>
</svg>
