<svg width="300" height="120" viewBox="0 0 300 120" fill="none" xmlns="http://www.w3.org/2000/svg">
<rect width="300" height="120" fill="white"/>
<path fill-rule="evenodd" clip-rule="evenodd" d="M55.0566 96.9846H71.7411C83.7889 96.9846 89.864 92.55 89.9666 83.6808C90.0691 79.118 88.3516 75.5549 84.8142 72.9916C81.9945 70.9409 78.8929 69.8899 75.5092 69.8386C79.0467 69.2234 81.9433 67.788 84.199 65.5322C86.4548 63.2764 87.5826 60.3029 87.5826 56.6117C87.5826 52.9205 86.1728 49.8957 83.3531 47.5374C80.5847 45.1791 76.7653 44 71.8949 44H55.0566V96.9846ZM70.5107 46.3839C76.8165 46.3839 79.9695 49.947 79.9695 57.0731C79.9695 61.1745 78.6622 64.3018 76.0475 66.455C73.9968 68.0956 71.7411 68.9158 69.2803 68.9158H59.2063V46.3839H70.5107ZM81.5075 83.3732C81.5587 87.6796 80.2002 90.7556 77.4317 92.6012C75.3811 93.9342 72.8946 94.6007 69.9724 94.6007H59.2063V71.2229H69.3572C72.4845 71.2229 75.0991 72.0175 77.201 73.6068C80.0207 75.76 81.4562 79.0155 81.5075 83.3732Z" fill="#333333"/>
<path d="M36.3 45.3H57.0622V91.2112C57.0622 93.7189 55.0294 95.7518 52.5217 95.7518H40.8406C38.3329 95.7518 36.3 93.7189 36.3 91.2112V45.3Z" fill="#C7BDAD" stroke="#333333" stroke-width="2.6"/>
<path d="M27.3565 30.3969L38.8523 19.8887C39.9096 18.9222 41.5502 18.9959 42.5166 20.0532L50.7294 29.0377C51.3082 29.671 51.4395 30.4166 51.1868 30.9975C50.4758 32.6323 48.9723 35.3026 45.9606 38.1041C43.4698 40.4211 40.8313 41.9365 38.8111 42.8722C37.8029 43.3391 36.9545 43.659 36.3641 43.8606C36.307 43.8801 36.2522 43.8985 36.2001 43.9159L27.1921 34.0613C26.2256 33.004 26.2992 31.3634 27.3565 30.3969Z" fill="#C7BDAD" stroke="#333333" stroke-width="2.6"/>
<path d="M36.7881 62.5H57.1503V95.2734H41.1286C38.7314 95.2734 36.7881 93.3301 36.7881 90.9329V62.5Z" fill="#F2CB92" stroke="#333333" stroke-width="3"/>
<rect x="36.5881" y="62.1359" width="20.7622" height="7.37762" fill="#DDA189" stroke="#333333" stroke-width="2.6"/>
<path d="M35.5695 27.5997C33.3911 29.4994 31.1841 30.8641 29.412 31.5574C28.5204 31.9063 27.8072 32.0582 27.2995 32.0653C26.7844 32.0726 26.6638 31.936 26.6582 31.9295C26.6525 31.9231 26.5336 31.785 26.6109 31.2757C26.687 30.7737 26.9346 30.0877 27.4015 29.2519C28.3295 27.5906 29.9817 25.5898 32.1601 23.6901C34.3385 21.7904 36.5456 20.4258 38.3177 19.7324C39.2092 19.3836 39.9225 19.2317 40.4302 19.2245C40.9453 19.2172 41.0659 19.3539 41.0715 19.3603C41.0771 19.3667 41.1961 19.5048 41.1188 20.0142C41.0426 20.5162 40.7951 21.2021 40.3282 22.0379C39.4002 23.6992 37.7479 25.7001 35.5695 27.5997Z" fill="#D9D9D9" stroke="#333333" stroke-width="2.6"/>
<path d="M58.0815 39.8516C58.0815 39.8516 67.1125 10.9909 81.0369 14.3298C94.9612 17.6686 91.5758 32.7714 70.9854 28.6035C50.3949 24.4357 54.9789 11.5483 54.9789 11.5483" stroke="#333333" stroke-width="2.4" stroke-linecap="round"/>
<path d="M96.3427 71.3846C95.965 70.4196 95.2308 69.9371 94.1399 69.9371H92.1888V68.2378H106.727V69.9371H103.769C102.678 69.9371 102.133 70.3357 102.133 71.1329C102.133 71.3427 102.196 71.5734 102.322 71.8252L109.811 91.3357L117.238 72.6434C117.49 72.014 117.615 71.4475 117.615 70.9441C117.615 70.2727 117.259 69.9371 116.545 69.9371H113.399V68.2378H124.853V69.9371H123.217C122.042 69.9371 121.077 70.8392 120.322 72.6434L109.811 96.9371C109.182 98.951 108.531 100.776 107.86 102.413C106.182 106.399 104.671 109 103.329 110.217C101.986 111.476 100.958 112.231 100.245 112.483C99.5315 112.734 98.7343 112.86 97.8531 112.86C97.014 112.86 96.1748 112.65 95.3357 112.231C94.5385 111.811 94.2657 111.077 94.5175 110.028C94.6853 108.559 95.6923 107.888 97.5385 108.014C98 108.182 98.6084 108.329 99.3636 108.455C100.119 108.622 100.685 108.622 101.063 108.455C101.483 108.329 102.112 107.846 102.951 107.007C104.168 105.58 104.986 104.238 105.406 102.979C106.119 101.469 106.664 99.9371 107.042 98.3846C107 98.049 106.874 97.5664 106.664 96.9371C106.455 96.2657 106.245 95.5524 106.035 94.7972C105.867 94.042 102.636 86.2378 96.3427 71.3846ZM151.194 82.3986H131.18C131.18 86.0909 132.103 88.965 133.95 91.021C135.838 93.2448 138.607 94.3566 142.257 94.3566C144.187 94.3566 146.684 93.3916 149.747 91.4615L150.565 92.0909C147.586 95.7413 143.894 97.5664 139.488 97.5664C135.082 97.5664 131.621 96.2448 129.103 93.6014C126.754 91.042 125.579 87.6434 125.579 83.4056C125.579 79.1678 126.838 75.5175 129.355 72.4545C131.915 69.3496 135.334 67.7972 139.614 67.7972C143.138 67.7972 145.971 68.993 148.11 71.3846C150.25 73.7343 151.32 76.6294 151.32 80.0699C151.32 80.5315 151.278 81.3077 151.194 82.3986ZM145.782 80.1329C145.782 77.1119 145.215 74.6364 144.082 72.7063C142.991 70.7762 141.334 69.8112 139.11 69.8112C136.887 69.8112 135.019 70.7133 133.509 72.5175C131.998 74.3217 131.243 76.8182 131.243 80.007C139.089 80.2168 143.936 80.2587 145.782 80.1329ZM173.842 53.6364C179.003 53.6364 182.905 54.7692 185.548 57.035C188.191 59.3007 189.513 62.3636 189.513 66.2238C189.513 70.0839 187.73 73.1049 184.163 75.2867C181.059 77.2168 176.905 78.1818 171.702 78.1818H166.415V95.049H172.268V97H154.772V95.049H160.688V55.5874H154.772V53.6364H173.842ZM179.506 74.1538C181.898 72.3496 183.052 69.6434 182.968 66.035C182.884 62.4266 182.045 59.7832 180.45 58.1049C178.898 56.4266 176.443 55.5874 173.087 55.5874H166.415V76.4825H171.828C174.975 76.4825 177.534 75.7063 179.506 74.1538ZM226.235 95.3007V97.0629H216.165L216.102 91.965C213.501 95.8671 209.787 97.8182 204.962 97.8182C201.144 97.8182 198.627 96.6853 197.41 94.4196C196.696 93.1189 196.34 90.7273 196.34 87.2448V72.0769C196.214 70.6503 195.501 69.9371 194.2 69.9371H191.242V68.2378H201.501V86.6154C201.501 89.2587 201.941 91.1678 202.822 92.3427C203.745 93.4755 205.508 94.042 208.109 94.042C209.955 94.042 211.717 93.2448 213.396 91.6503C215.074 89.972 215.913 88.3986 215.913 86.9301V72.0769C215.829 70.6503 215.074 69.9371 213.648 69.9371H210.752V68.2378H221.011V93.9161C221.011 94.3776 221.179 94.7343 221.515 94.986C221.892 95.1958 222.249 95.3007 222.585 95.3007H226.235Z" fill="#333333"/>
<path d="M268.273 57.5385C268.315 59.7203 267.287 60.8112 265.189 60.8112C264.601 60.8112 263.993 60.6434 263.364 60.3077C262.776 59.9301 262.503 59.5524 262.545 59.1748C262.629 58.7552 262.944 58.2727 263.49 57.7273C263.909 57.3916 264.056 56.951 263.93 56.4056C263.804 54.8531 262.839 54.0769 261.035 54.0769C259.441 54.0769 258.643 55 258.643 56.8461V63.0769C258.685 64.7552 258.706 66.8112 258.706 69.2448H266.196V71.5105H258.643V93.8531C258.769 94.8182 259.252 95.3007 260.091 95.3007H263.741V97H248.385V95.3007H252.035C252.874 95.3007 253.357 94.8182 253.483 93.8531V71.5105H248.448V69.2448H253.483V59.4895C253.483 55 256 52.7552 261.035 52.7552C263.636 52.7552 265.566 53.3217 266.825 54.4545C267.706 55.2937 268.189 56.3217 268.273 57.5385Z" fill="#333333"/>
<path d="M248.273 57.5385C248.315 59.7203 247.287 60.8112 245.189 60.8112C244.601 60.8112 243.993 60.6434 243.364 60.3077C242.776 59.9301 242.503 59.5524 242.545 59.1748C242.629 58.7552 242.944 58.2727 243.49 57.7273C243.909 57.3916 244.056 56.951 243.93 56.4056C243.804 54.8531 242.839 54.0769 241.035 54.0769C239.441 54.0769 238.643 55 238.643 56.8461V63.0769C238.685 64.7552 238.706 66.8112 238.706 69.2448H246.196V71.5105H238.643V93.8531C238.769 94.8182 239.252 95.3007 240.091 95.3007H243.741V97H228.385V95.3007H232.035C232.874 95.3007 233.357 94.8182 233.483 93.8531V71.5105H228.448V69.2448H233.483V59.4895C233.483 55 236 52.7552 241.035 52.7552C243.636 52.7552 245.566 53.3217 246.825 54.4545C247.706 55.2937 248.189 56.3217 248.273 57.5385Z" fill="#333333"/>
<rect x="51" y="95" width="6" height="2" fill="#333333"/>
</svg>
